<svg width="1512" height="982" viewBox="0 0 1512 982" fill="none" xmlns="http://www.w3.org/2000/svg">
<g clip-path="url(#clip0_21_197)">
<path d="M0 572.833L31.584 563.341C63.336 553.684 126.504 534.699 189.504 540.918C252.504 547.138 315.336 578.889 378.336 594.928C441.336 610.968 504.504 611.622 567.504 599.02C630.504 586.418 693.336 560.886 756.336 560.231C819.336 559.74 882.504 584.29 945.504 595.419C1008.5 606.712 1071.34 604.421 1134.34 590.837C1197.34 577.252 1260.5 552.048 1323.5 542.228C1386.5 532.408 1449.34 537.972 1480.58 540.591L1512 543.373V983.637H1480.58C1449.34 983.637 1386.5 983.637 1323.5 983.637C1260.5 983.637 1197.34 983.637 1134.34 983.637C1071.34 983.637 1008.5 983.637 945.504 983.637C882.504 983.637 819.336 983.637 756.336 983.637C693.336 983.637 630.504 983.637 567.504 983.637C504.504 983.637 441.336 983.637 378.336 983.637C315.336 983.637 252.504 983.637 189.504 983.637C126.504 983.637 63.336 983.637 31.584 983.637H0V572.833Z" fill="#F1DABF" fill-opacity="0.5"/>
<path d="M0 669.397L31.584 659.904C63.336 650.248 126.504 631.262 189.504 626.843C252.504 622.424 315.336 632.899 378.336 641.246C441.336 649.757 504.504 656.303 567.504 659.904C630.504 663.341 693.336 663.996 756.336 661.704C819.336 659.577 882.504 654.667 945.504 657.122C1008.5 659.577 1071.34 669.397 1134.34 673.816C1197.34 678.071 1260.5 677.089 1323.5 677.089C1386.5 677.089 1449.34 678.071 1480.58 678.726L1512 679.217V983.637H1480.58C1449.34 983.637 1386.5 983.637 1323.5 983.637C1260.5 983.637 1197.34 983.637 1134.34 983.637C1071.34 983.637 1008.5 983.637 945.504 983.637C882.504 983.637 819.336 983.637 756.336 983.637C693.336 983.637 630.504 983.637 567.504 983.637C504.504 983.637 441.336 983.637 378.336 983.637C315.336 983.637 252.504 983.637 189.504 983.637C126.504 983.637 63.336 983.637 31.584 983.637H0V669.397Z" fill="#C8CCAF" fill-opacity="0.5"/>
<path d="M0 707.04L31.584 713.259C63.336 719.642 126.504 732.081 189.504 732.408C252.504 732.736 315.336 720.624 378.336 713.096C441.336 705.403 504.504 702.13 567.504 710.313C630.504 718.497 693.336 738.137 756.336 737.318C819.336 736.5 882.504 715.223 945.504 715.223C1008.5 715.223 1071.34 736.5 1134.34 748.448C1197.34 760.559 1260.5 763.178 1323.5 759.413C1386.5 755.649 1449.34 745.174 1480.58 740.101L1512 734.863V983.637H1480.58C1449.34 983.637 1386.5 983.637 1323.5 983.637C1260.5 983.637 1197.34 983.637 1134.34 983.637C1071.34 983.637 1008.5 983.637 945.504 983.637C882.504 983.637 819.336 983.637 756.336 983.637C693.336 983.637 630.504 983.637 567.504 983.637C504.504 983.637 441.336 983.637 378.336 983.637C315.336 983.637 252.504 983.637 189.504 983.637C126.504 983.637 63.336 983.637 31.584 983.637H0V707.04Z" fill="#A1BCA9" fill-opacity="0.5"/>
<path d="M0 824.88L31.584 822.425C63.336 819.97 126.504 815.06 189.504 813.751C252.504 812.278 315.336 814.569 378.336 810.968C441.336 807.368 504.504 798.202 567.504 791.328C630.504 784.454 693.336 780.199 756.336 783.145C819.336 786.091 882.504 796.566 945.504 798.366C1008.5 800.33 1071.34 793.783 1134.34 790.019C1197.34 786.091 1260.5 785.109 1323.5 790.019C1386.5 794.929 1449.34 805.731 1480.58 811.296L1512 816.697V983.637H1480.58C1449.34 983.637 1386.5 983.637 1323.5 983.637C1260.5 983.637 1197.34 983.637 1134.34 983.637C1071.34 983.637 1008.5 983.637 945.504 983.637C882.504 983.637 819.336 983.637 756.336 983.637C693.336 983.637 630.504 983.637 567.504 983.637C504.504 983.637 441.336 983.637 378.336 983.637C315.336 983.637 252.504 983.637 189.504 983.637C126.504 983.637 63.336 983.637 31.584 983.637H0V824.88Z" fill="#84A9A6" fill-opacity="0.5"/>
<path d="M0 880.527L31.584 881.672C63.336 882.654 126.504 884.946 189.504 888.71C252.504 892.474 315.336 898.039 378.336 900.167C441.336 902.294 504.504 901.312 567.504 899.676C630.504 898.039 693.336 895.748 756.336 895.584C819.336 895.257 882.504 896.893 945.504 898.53C1008.5 900.167 1071.34 901.803 1134.34 895.584C1197.34 889.201 1260.5 875.126 1323.5 869.561C1386.5 864.16 1449.34 867.433 1480.58 869.07L1512 870.707V983.637H1480.58C1449.34 983.637 1386.5 983.637 1323.5 983.637C1260.5 983.637 1197.34 983.637 1134.34 983.637C1071.34 983.637 1008.5 983.637 945.504 983.637C882.504 983.637 819.336 983.637 756.336 983.637C693.336 983.637 630.504 983.637 567.504 983.637C504.504 983.637 441.336 983.637 378.336 983.637C315.336 983.637 252.504 983.637 189.504 983.637C126.504 983.637 63.336 983.637 31.584 983.637H0V880.527Z" fill="#76949F" fill-opacity="0.5"/>
</g>
<defs>
<clipPath id="clip0_21_197">
<rect width="1512" height="982" fill="white"/>
</clipPath>
</defs>
</svg>
